HIERARCHY
ROOT hip
{
	OFFSET 0.000000 0.000000 0.000000 
	CHANNELS 6 Xposition Yposition Zposition Xrotation Zrotation Yrotation
	JOINT abdomen
	{
		OFFSET 0.000000 3.402643 0.000000 
		CHANNELS 3 Xrotation Zrotation Yrotation
		JOINT chest
		{
			OFFSET 0.000000 8.438565 -0.680529 
			CHANNELS 3 Xrotation Zrotation Yrotation
			JOINT neck
			{
				OFFSET 0.000000 10.207942 -0.272212 
				CHANNELS 3 Xrotation Zrotation Yrotation
				JOINT head
				{
					OFFSET 0.000000 3.130431 0.000000 
					CHANNELS 3 Xrotation Zrotation Yrotation
					End Site
					{
						OFFSET 0.000000 3.130435 0.000000 
					}
				}
			}
			JOINT lCollar
			{
				OFFSET 3.470700 6.669187 -0.816635 
				CHANNELS 3 Yrotation Zrotation Xrotation
				JOINT lShldr
				{
					OFFSET 3.198488 0.000000 0.000000 
					CHANNELS 3 Zrotation Yrotation Xrotation
					JOINT lForeArm
					{
						OFFSET 10.139888 0.000000 0.000000 
						CHANNELS 3 Yrotation Zrotation Xrotation
						JOINT lHand
						{
							OFFSET 8.370511 0.000000 0.000000 
							CHANNELS 3 Zrotation Yrotation Xrotation
							End Site
							{
								OFFSET 4.083176 0.000000 0.000000 
							}
						}
					}
				}
			}
			JOINT rCollar
			{
				OFFSET -3.470700 6.669187 -0.816635 
				CHANNELS 3 Yrotation Zrotation Xrotation
				JOINT rShldr
				{
					OFFSET -3.198488 0.000000 0.000000 
					CHANNELS 3 Zrotation Yrotation Xrotation
					JOINT rForeArm
					{
						OFFSET -10.139888 0.000000 0.000000 
						CHANNELS 3 Yrotation Zrotation Xrotation
						JOINT rHand
						{
							OFFSET -8.370511 0.000000 0.000000 
							CHANNELS 3 Zrotation Yrotation Xrotation
							End Site
							{
								OFFSET -4.083176 0.000000 0.000000 
							}
						}
					}
				}
			}
		}
	}
	JOINT lThigh
	{
		OFFSET 5.308129 -1.633274 1.361059 
		CHANNELS 3 Xrotation Zrotation Yrotation
		JOINT lShin
		{
			OFFSET -2.041588 -20.007561 0.000000 
			CHANNELS 3 Xrotation Zrotation Yrotation
			JOINT lFoot
			{
				OFFSET 0.000000 -19.190928 -1.224953 
				CHANNELS 3 Xrotation Yrotation Zrotation
				End Site
				{
					OFFSET 0.000000 -2.449906 4.627600 
				}
			}
		}
	}
	JOINT rThigh
	{
		OFFSET -5.308129 -1.633274 1.361059 
		CHANNELS 3 Xrotation Zrotation Yrotation
		JOINT rShin
		{
			OFFSET 2.041588 -20.007561 0.000000 
			CHANNELS 3 Xrotation Zrotation Yrotation
			JOINT rFoot
			{
				OFFSET 0.000000 -19.190928 -1.224953 
				CHANNELS 3 Xrotation Yrotation Zrotation
				End Site
				{
					OFFSET 0.000000 -2.449906 4.627600 
				}
			}
		}
	}
}
MOTION
Frames: 11
Frame Time: 0.016667
3.184733 47.216686 141.794250 -3.206510 -5.187220 76.129700 -21.638599 -2.546720 -5.272490 13.430500 2.538860 -3.031830 32.662800 3.496410 -5.841160 20.327000 4.157040 -2.196760 2.000000 -2.000000 0.000000 -83.031502 -8.552040 -143.783005 93.858002 -0.204993 0.155959 -179.908997 -179.878006 -1.491980 -2.000000 2.000000 0.000000 73.899696 -15.912900 -169.815994 -66.416496 0.269548 0.125303 -0.074644 0.057028 -157.742004 -19.633451 7.973512 -10.392194 60.850861 1.433373 3.828955 -43.114468 7.034153 1.336725 -26.609879 2.118591 1.613069 59.087849 -1.320120 -3.876024 -21.584745 19.737789 6.629599 
3.232566 47.148499 144.149963 -3.198330 -5.499290 77.357101 -21.637600 -2.889380 -5.073440 13.500600 2.209720 -2.958790 32.375500 3.619490 -6.099300 20.070601 4.078470 -2.317540 2.000000 -2.000000 0.000000 -81.108498 -6.561770 -144.772995 93.711502 -0.205367 0.155984 -179.908997 -179.876999 -1.755650 -2.000000 2.000000 0.000000 75.844200 -16.847700 -170.960007 -65.264198 0.272056 0.124178 -0.073619 0.054258 -156.686996 -19.884220 7.810919 -11.848637 60.822132 1.421289 3.832501 -43.918545 6.478985 0.772898 -25.932653 2.381819 2.918846 58.073757 -1.432978 -3.788064 -20.344551 22.363268 7.409056 
3.290712 47.077988 146.478745 -3.160570 -5.772520 78.432800 -21.624300 -3.120950 -4.939650 13.520800 2.054740 -2.909620 32.033100 3.547140 -6.236500 19.814600 4.018390 -2.383480 2.000000 -2.000000 0.000000 -79.166496 -4.552550 -146.046005 93.613800 -0.205616 0.156000 -179.906998 -179.875000 -2.634550 -2.000000 2.000000 0.000000 77.329201 -17.285101 -171.820999 -63.643101 0.275546 0.122510 -0.073081 0.052737 -156.110992 -20.177229 7.674249 -12.915108 60.910015 1.417265 3.827159 -44.695827 6.097559 0.354047 -25.140213 2.620008 3.325358 56.806255 -1.552542 -3.728001 -22.283209 22.919918 8.478756 
3.345152 47.006695 148.789551 -3.250990 -6.123020 79.457497 -21.644300 -3.239740 -4.671400 13.375500 1.763410 -2.780630 31.890499 3.547750 -6.451190 19.745100 3.972890 -2.490050 2.000000 -2.000000 0.000000 -77.380600 -2.640690 -147.153000 93.272102 -0.206488 0.156053 -179.904999 -179.873001 -3.640400 -2.000000 2.000000 0.000000 -101.342003 -162.453995 7.016410 -61.758301 0.279543 0.120447 -0.072673 0.051548 -155.662003 -20.752066 7.754926 -13.760809 61.184643 1.399123 3.836538 -45.244606 5.768707 0.035352 -24.373444 2.955061 2.760611 55.403091 -1.639571 -3.671084 -26.746780 21.742096 9.744786 
3.420485 46.961712 151.049805 -3.263910 -6.610450 80.356400 -21.711000 -3.254750 -4.432290 13.190600 1.568980 -2.663670 31.810200 3.470600 -6.522720 19.745100 3.972890 -2.538870 2.000000 -2.000000 0.000000 -75.800102 -0.631597 -148.455994 92.852097 -0.207560 0.156110 -179.903000 -179.871994 -4.411890 -2.000000 2.000000 0.000000 -100.267998 -162.494995 6.176660 -59.746601 0.283731 0.118102 -0.073189 0.053047 -156.227997 -21.428272 7.741779 -14.475966 61.479729 1.367972 3.856417 -45.921738 6.287613 0.604984 -23.782816 3.205637 2.387068 54.048981 -1.716891 -3.614668 -29.522287 21.828741 11.044867 
3.465466 46.900085 153.287567 -3.170140 -7.283880 81.085197 -21.859900 -3.185730 -4.024500 12.868800 1.393620 -2.443910 31.765200 3.410940 -6.652610 19.833200 3.970980 -2.610910 2.000000 -2.000000 0.000000 -74.336700 1.407080 -149.602005 92.276001 -0.209032 0.156176 -179.904007 -179.873001 -3.972430 -2.000000 2.000000 0.000000 -99.242203 -162.850006 4.810340 -57.314999 0.288679 0.115072 -0.073280 0.053305 -156.326004 -22.328892 7.658129 -15.480624 61.676895 1.329619 3.866103 -46.122646 6.119172 0.458363 -23.856974 3.269501 1.838344 53.332615 -1.745811 -3.571875 -30.795980 22.466656 12.051393 
3.481497 46.845177 155.500641 -2.701320 -7.881970 81.746803 -21.997299 -3.164280 -3.660530 12.468100 1.440610 -2.274960 31.388000 3.387850 -6.790820 19.687401 4.021170 -2.715330 2.000000 -2.000000 0.000000 -73.283997 3.464540 -151.091003 91.582603 -0.210804 0.156236 -179.906006 -179.873993 -3.220480 -2.000000 2.000000 0.000000 -98.490601 -163.632996 3.845460 -54.658699 0.293932 0.111527 -0.073271 0.053279 -156.315994 -23.161812 7.168794 -16.706297 61.629021 1.314845 3.879060 -45.823471 5.664892 -0.073216 -24.518759 2.696333 0.851751 53.472321 -1.712613 -3.609913 -31.087776 22.504147 12.173906 
3.522466 46.806507 157.711441 -2.420030 -8.634990 81.885803 -22.030500 -3.031110 -3.081580 12.351200 1.362860 -1.964030 30.858200 3.581690 -6.903020 19.504299 4.156950 -2.808430 2.000000 -2.000000 0.000000 -72.202202 5.570350 -152.785004 91.074799 -0.212102 0.156267 -179.906998 -179.875000 -2.732200 -2.000000 2.000000 0.000000 -97.876297 -164.981995 3.350730 -51.729000 0.299529 0.107339 -0.072822 0.051988 -155.828003 -23.866045 7.165095 -17.456457 61.413429 1.326687 3.874299 -45.278694 4.949672 -0.837835 -25.658350 2.312692 -0.145488 54.073219 -1.636536 -3.652375 -30.600405 22.415762 11.865682 
3.566874 46.770412 159.918884 -2.008120 -9.174150 81.950203 -21.866100 -2.941030 -2.533550 12.380300 1.411290 -1.687070 30.287399 3.808130 -6.959990 19.340599 4.283060 -2.865140 2.000000 -2.000000 0.000000 -71.365097 7.665500 -154.869003 90.576797 -0.213375 0.156285 -179.906998 -179.876007 -2.419710 -2.000000 2.000000 0.000000 -97.349998 -166.848007 3.033090 -48.643002 0.305184 0.102624 -0.071494 0.047934 -154.304993 -24.293686 7.121216 -17.764479 61.071529 1.324208 3.875258 -44.850212 4.479492 -1.291515 -26.529577 1.759524 -1.148273 54.722965 -1.571841 -3.706867 -30.050438 22.434437 11.588106 
3.612134 46.737926 162.097137 -1.495800 -9.654970 81.871696 -21.620701 -2.803260 -1.998460 12.477200 1.634020 -1.413470 29.715799 3.772100 -7.029070 19.184200 4.296000 -2.893800 2.000000 -2.000000 0.000000 -70.879997 9.701020 -157.393997 90.127502 -0.214523 0.156292 -179.906998 -179.875000 -2.644310 -2.000000 2.000000 0.000000 -97.009399 -169.065002 3.067930 -45.742599 0.310261 0.097922 -0.070568 0.054637 -153.162003 -24.707245 6.997581 -17.619562 60.767334 1.335445 3.853917 -44.593426 4.286967 -1.446782 -27.296932 1.091862 -2.035986 55.214733 -1.514935 -3.730785 -29.612173 22.648224 11.461452 
3.691188 46.714470 164.275375 -1.230550 -10.241800 81.556702 -21.453899 -2.603930 -1.243410 12.487000 1.614720 -1.029590 29.304600 4.001360 -7.108660 19.118200 4.410670 -2.946610 2.000000 -2.000000 0.000000 -70.404503 11.795400 -159.761993 89.668503 -0.215640 0.136759 -179.906006 -179.875000 -3.025170 -2.000000 2.000000 0.000000 -96.590401 -171.203995 3.034250 -43.223099 0.314473 0.093633 -0.060493 0.043794 -152.761993 -25.202589 7.308838 -17.017879 60.601528 1.326680 3.855099 -44.382004 4.171953 -1.464678 -27.821697 0.909047 -2.577532 55.187630 -1.478088 -3.751913 -29.402744 23.108130 11.645028 
